<?xml version="1.0" standalone="no"?>
<!DOCTYPE svg PUBLIC "-//W3C//DTD SVG 20010904//EN"
 "http://www.w3.org/TR/2001/REC-SVG-20010904/DTD/svg10.dtd">
<svg version="1.0" xmlns="http://www.w3.org/2000/svg"
 width="514.000000pt" height="514.000000pt" viewBox="0 0 514.000000 514.000000"
 preserveAspectRatio="xMidYMid meet">
<metadata>
Created by potrace 1.11, written by Peter Selinger 2001-2013
</metadata>
<g transform="translate(0.000000,514.000000) scale(0.100000,-0.100000)"
fill="#000000" stroke="none">
<path d="M50 3901 l0 -1239 -22 -6 c-19 -5 -21 -8 -8 -16 10 -6 11 -10 3 -10
-7 0 -13 -7 -13 -16 0 -9 5 -12 12 -8 10 6 10 5 1 -7 -12 -15 -16 -112 -4
-105 4 3 8 -1 8 -9 0 -8 -4 -12 -8 -9 -5 3 -8 -20 -8 -51 1 -30 4 -53 8 -50 4
2 8 -2 8 -10 0 -8 -4 -12 -8 -9 -5 3 -8 -20 -8 -51 1 -30 4 -53 8 -50 4 2 8
-2 8 -10 0 -8 -4 -12 -8 -9 -5 3 -8 -20 -8 -51 1 -30 4 -53 8 -50 4 2 8 -2 8
-10 0 -8 -4 -12 -8 -9 -5 3 -8 -20 -8 -51 1 -30 4 -53 8 -50 4 2 8 -2 8 -10 0
-8 -4 -12 -8 -9 -5 3 -8 -20 -8 -51 1 -30 4 -53 8 -50 4 2 8 -2 8 -10 0 -8 -4
-12 -8 -9 -5 3 -8 -20 -8 -51 1 -30 4 -53 8 -50 4 2 8 -2 8 -10 0 -8 -4 -12
-8 -9 -5 3 -8 -20 -8 -51 1 -30 4 -53 8 -50 4 2 8 -2 8 -10 0 -8 -4 -12 -8 -9
-5 3 -8 -20 -8 -51 1 -30 4 -53 8 -50 4 2 8 -2 8 -10 0 -8 -4 -12 -8 -9 -5 3
-8 -20 -8 -51 1 -30 4 -53 8 -50 4 2 8 -2 8 -10 0 -8 -4 -12 -9 -9 -4 3 -8 -6
-8 -20 0 -14 6 -26 13 -26 9 0 9 -2 -1 -9 -10 -6 -9 -10 7 -14 21 -5 21 -7 23
-619 3 -561 4 -613 19 -610 9 1 20 -5 23 -14 5 -14 4 -15 -9 -4 -8 7 -15 8
-15 2 0 -11 26 -25 50 -26 8 -1 21 -5 28 -10 7 -4 16 -5 19 -2 4 3 2 6 -4 6
-5 0 -10 7 -10 15 0 8 5 15 10 15 6 0 7 3 4 7 -4 3 -16 -2 -26 -11 -18 -17
-20 -17 -29 1 -10 18 -6 19 74 18 47 -1 87 2 90 7 3 4 13 4 22 0 9 -5 51 -8
93 -7 57 1 76 -2 76 -12 0 -8 -7 -11 -17 -8 -11 3 -20 -1 -24 -11 -5 -14 -4
-15 9 -4 12 10 15 9 15 -6 0 -12 3 -15 8 -8 4 6 14 10 23 9 17 -3 20 18 4 32
-4 4 -5 2 0 -6 5 -9 4 -12 -3 -7 -6 4 -8 14 -5 22 3 9 8 11 12 6 3 -6 23 -9
44 -7 34 4 37 2 33 -19 -3 -18 1 -22 20 -22 13 0 24 4 24 9 0 5 -6 7 -13 4 -7
-3 -13 2 -13 12 0 14 20 16 181 16 141 0 182 -2 182 -12 0 -8 -7 -11 -17 -8
-11 3 -20 -1 -24 -11 -5 -14 -4 -15 9 -4 12 10 15 9 15 -6 0 -12 3 -15 8 -8 4
6 14 10 23 9 17 -3 20 18 4 32 -4 4 -5 2 0 -6 5 -9 4 -12 -3 -7 -6 4 -8 14 -5
22 3 9 8 11 12 6 3 -6 23 -9 44 -7 34 4 37 2 33 -19 -3 -18 1 -22 20 -22 13 0
24 4 24 9 0 5 -6 7 -13 4 -7 -3 -13 2 -13 12 0 14 20 16 181 16 141 0 182 -2
182 -12 0 -8 -7 -11 -17 -8 -11 3 -20 -1 -24 -11 -5 -14 -4 -15 9 -4 12 10 15
9 15 -6 0 -12 3 -15 8 -8 4 6 14 10 23 9 17 -3 20 18 4 32 -4 4 -5 2 0 -6 5
-9 4 -12 -3 -7 -6 4 -8 14 -5 22 3 9 8 11 12 6 3 -6 23 -9 44 -7 34 4 37 2 33
-19 -3 -18 1 -22 20 -22 13 0 24 4 24 9 0 5 -6 7 -13 4 -7 -3 -13 2 -13 12 0
15 32 16 337 16 186 0 335 -3 333 -7 -3 -4 0 -16 5 -25 6 -10 11 -12 11 -5 0
6 5 12 11 12 5 0 8 -4 5 -8 -3 -5 7 -8 22 -7 15 1 33 -3 40 -8 7 -5 15 -7 19
-3 3 3 1 6 -6 6 -7 0 -9 5 -6 10 5 8 11 7 21 -1 11 -9 14 -9 14 0 0 7 5 9 10
6 6 -3 10 -1 10 5 0 7 -8 9 -19 5 -11 -3 -22 -1 -26 5 -5 8 -13 6 -25 -5 -17
-16 -19 -15 -28 2 -10 17 -1 18 194 18 159 0 205 -3 209 -13 2 -7 1 -10 -4 -7
-5 3 -12 1 -16 -5 -4 -6 -11 -7 -17 -4 -6 4 -5 9 3 15 10 6 7 8 -9 6 -12 0
-22 -4 -22 -8 0 -9 -42 -5 -58 5 -7 4 -12 3 -12 -2 0 -5 -7 -9 -15 -9 -8 0
-15 5 -15 10 0 5 -6 4 -14 -2 -10 -8 -16 -9 -21 -2 -9 15 -48 7 -51 -11 -1 -8
4 -15 12 -15 7 0 12 5 11 10 -1 5 4 12 11 14 8 3 10 -2 6 -14 -5 -15 -4 -15 5
-3 9 13 11 13 11 0 0 -10 3 -11 8 -4 8 12 76 12 105 -1 10 -4 17 -3 17 4 0 6
5 11 11 11 5 0 8 -4 5 -9 -5 -8 22 -8 32 -1 8 7 29 5 41 -4 11 -8 10 -4 -2 14
l-16 25 54 0 c56 0 63 -3 45 -21 -7 -7 -2 -10 13 -11 12 0 30 -4 40 -8 10 -4
17 -3 17 4 0 6 5 11 11 11 5 0 8 -4 5 -9 -4 -5 2 -8 11 -6 10 1 24 -2 31 -8 7
-5 15 -7 19 -3 3 3 1 6 -6 6 -7 0 -9 5 -6 10 5 8 12 7 23 -2 13 -11 13 -10 -1
12 l-16 26 213 0 c166 -1 213 -3 213 -13 0 -8 -7 -11 -17 -8 -11 3 -20 -1 -24
-11 -5 -14 -4 -15 9 -4 12 10 15 9 15 -6 0 -12 3 -15 8 -8 4 6 14 10 23 9 17
-3 20 18 4 32 -4 4 -5 2 0 -6 5 -9 4 -12 -3 -7 -6 4 -8 14 -5 22 3 9 8 11 12
6 3 -6 23 -9 44 -7 34 4 37 2 33 -19 -3 -18 1 -22 20 -22 13 0 24 4 24 9 0 5
-6 7 -13 4 -7 -3 -13 2 -13 12 0 15 38 16 421 16 335 0 422 -2 422 -13 0 -7
-7 -10 -17 -7 -11 3 -20 -1 -24 -11 -5 -14 -4 -15 9 -4 12 10 15 9 15 -6 0
-12 3 -15 8 -8 4 6 14 10 23 9 17 -3 20 18 4 32 -4 4 -5 2 0 -6 5 -9 4 -12 -3
-7 -6 4 -8 14 -5 22 3 9 8 11 12 6 3 -6 23 -9 44 -7 34 4 37 2 33 -19 -3 -18
1 -22 20 -22 13 0 24 4 24 9 0 5 -6 7 -13 4 -7 -3 -13 2 -13 12 0 14 25 16
248 16 l247 0 -15 -23 c-9 -13 -13 -26 -10 -30 3 -3 6 0 6 6 0 6 11 9 25 6 26
-5 34 9 13 22 -7 5 -8 3 -3 -6 5 -8 4 -11 -3 -6 -6 4 -9 12 -6 19 3 9 29 13
84 13 l80 -1 0 783 c0 657 2 785 14 797 7 8 16 11 20 8 12 -12 6 23 -7 36 -9
11 -9 13 1 7 16 -9 16 16 -1 33 -9 11 -9 13 1 7 16 -9 16 16 -1 33 -9 11 -9
13 1 7 16 -9 16 16 -1 33 -9 11 -9 13 1 7 16 -9 16 16 -1 33 -9 11 -9 13 1 7
7 -4 12 -2 12 6 0 8 -6 20 -12 27 -10 11 -10 13 0 7 7 -4 12 -2 12 6 0 8 -6
20 -12 27 -10 11 -10 13 0 7 7 -4 12 -2 12 6 0 8 -6 20 -12 27 -10 11 -10 13
0 7 7 -4 12 -2 12 6 0 8 -6 20 -12 27 -10 11 -10 13 0 7 7 -4 12 -2 12 6 0 8
-6 20 -12 27 -10 11 -10 13 0 7 7 -4 12 -2 12 6 0 8 -6 20 -12 27 -10 11 -10
13 0 7 7 -4 12 -2 12 6 0 8 -6 20 -12 27 -10 11 -10 13 0 7 7 -4 12 -2 12 6 0
8 -6 20 -12 27 -10 11 -10 13 0 7 7 -4 12 -2 12 6 0 8 -6 20 -12 27 -10 11
-10 13 0 7 7 -4 12 -2 12 6 0 8 -6 20 -12 27 -10 11 -10 13 0 7 7 -4 12 -2 12
6 0 8 -6 20 -12 27 -10 11 -10 13 0 7 7 -4 12 -2 12 6 0 8 -6 20 -12 27 -10
11 -10 13 0 7 7 -4 12 -2 12 6 0 8 -6 20 -12 27 -10 11 -10 13 0 7 7 -4 12 -2
12 6 0 8 -6 20 -12 27 -10 11 -10 13 0 7 7 -4 12 -2 12 6 0 8 -6 20 -12 27
-10 11 -10 13 0 7 7 -4 12 -2 12 6 0 8 -6 20 -12 27 -10 11 -10 13 0 7 7 -4
12 -2 12 6 0 8 -6 20 -12 27 -10 11 -10 13 0 7 7 -4 12 -2 12 6 0 8 -6 20 -12
27 -10 11 -10 13 0 7 7 -4 12 -2 12 6 0 8 -6 20 -12 27 -10 11 -10 13 0 7 7
-4 12 -2 12 6 0 8 -6 20 -12 27 -10 11 -10 13 0 7 16 -9 16 16 0 33 -10 11
-10 13 0 7 7 -4 12 -2 12 6 0 8 -6 20 -12 27 -10 11 -10 13 0 7 7 -4 12 -2 12
6 0 8 -6 20 -12 27 -10 11 -10 13 0 7 7 -4 12 -2 12 6 0 8 -6 20 -12 27 -10
11 -10 13 0 7 16 -9 16 16 0 33 -10 11 -10 13 0 7 7 -4 12 -2 12 6 0 8 -6 20
-12 27 -10 11 -10 13 0 7 7 -4 12 -2 12 6 0 8 -6 20 -12 27 -10 11 -10 12 -1
7 9 -5 12 1 11 18 -2 20 -7 25 -20 20 -17 -5 -18 43 -18 1065 l0 1071 -2520 0
-2520 0 0 -1239z m2209 -3823 c13 -21 13 -22 -2 -10 -9 8 -21 11 -26 7 -7 -3
-8 0 -5 9 8 22 17 20 33 -6z m651 10 c0 -4 0 -11 0 -15 0 -13 -24 -10 -41 4
-14 12 -17 11 -23 -2 -4 -12 -10 -13 -25 -6 -10 6 -22 7 -27 3 -5 -4 -3 0 3 8
12 16 113 23 113 8z"/>
<path d="M274 88 c-4 -6 -3 -8 4 -4 6 3 14 -3 17 -15 5 -15 10 -18 15 -9 6 9
12 9 29 -2 18 -11 23 -11 31 2 10 16 4 30 -12 30 -5 0 -7 -7 -4 -16 4 -10 2
-14 -6 -11 -7 2 -12 10 -10 16 1 7 -2 10 -8 6 -5 -3 -18 -1 -29 5 -14 7 -22 7
-27 -2z"/>
<path d="M186 78 c3 -4 0 -8 -6 -8 -6 0 -8 -5 -4 -11 5 -8 9 -8 14 1 5 8 13 9
21 4 18 -11 80 -13 73 -3 -2 5 -11 6 -20 2 -9 -3 -14 0 -12 7 2 7 -3 14 -10
16 -7 1 -8 0 -2 -3 15 -7 2 -23 -15 -17 -8 4 -13 9 -11 13 3 4 -4 7 -14 7 -10
0 -16 -4 -14 -8z"/>
<path d="M390 85 c0 -7 30 -13 34 -7 3 4 -4 9 -15 9 -10 1 -19 0 -19 -2z"/>
<path d="M521 73 c-7 -8 -10 -17 -7 -20 3 -4 6 -3 6 2 0 4 8 1 18 -6 9 -7 14
-10 10 -5 -4 5 -3 16 2 26 11 21 -10 23 -29 3z"/>
<path d="M628 83 c-8 -16 -3 -36 10 -39 7 -1 8 0 2 3 -5 2 -7 9 -4 14 3 6 11
5 20 -2 11 -9 14 -9 14 0 0 7 5 9 10 6 6 -3 10 -1 10 5 0 6 4 9 8 6 4 -2 14
-1 21 3 8 5 0 8 -22 7 -19 0 -33 -4 -30 -8 7 -12 -12 -9 -24 3 -6 6 -13 7 -15
2z"/>
<path d="M749 86 c-8 -8 -3 -33 7 -33 7 0 12 5 11 10 -1 5 4 12 11 14 8 3 10
-2 6 -14 -4 -13 -3 -15 4 -5 8 12 13 12 31 0 18 -11 23 -11 31 2 10 16 4 30
-12 30 -5 0 -7 -7 -4 -16 4 -10 2 -14 -6 -11 -7 2 -12 8 -11 13 1 7 -62 15
-68 10z"/>
<path d="M870 85 c0 -7 30 -13 34 -7 3 4 -4 9 -15 9 -10 1 -19 0 -19 -2z"/>
<path d="M1001 73 c-7 -8 -10 -17 -7 -20 3 -4 6 -3 6 2 0 4 8 1 18 -6 9 -7 14
-10 10 -5 -4 5 -3 16 2 26 11 21 -10 23 -29 3z"/>
<path d="M1108 83 c-8 -16 -3 -36 10 -39 7 -1 8 0 2 3 -5 2 -7 9 -4 14 3 6 11
5 20 -2 11 -9 14 -9 14 0 0 7 5 9 10 6 6 -3 10 -1 10 5 0 6 4 9 8 6 4 -2 14
-1 21 3 8 5 0 8 -22 7 -19 0 -33 -4 -30 -8 7 -12 -12 -9 -24 3 -6 6 -13 7 -15
2z"/>
<path d="M1229 86 c-8 -8 -3 -33 7 -33 7 0 12 5 11 10 -1 5 4 12 11 14 8 3 10
-2 6 -14 -4 -13 -3 -15 4 -5 8 12 13 12 31 0 18 -11 23 -11 31 2 10 16 4 30
-12 30 -5 0 -7 -7 -4 -16 4 -10 2 -14 -6 -11 -7 2 -12 8 -11 13 1 7 -62 15
-68 10z"/>
<path d="M1350 85 c0 -7 30 -13 34 -7 3 4 -4 9 -15 9 -10 1 -19 0 -19 -2z"/>
<path d="M1481 73 c-7 -8 -10 -17 -7 -20 3 -4 6 -3 6 2 0 4 8 1 18 -6 9 -7 14
-10 10 -5 -4 5 -3 16 2 26 11 21 -10 23 -29 3z"/>
<path d="M1588 83 c-8 -16 -3 -36 10 -39 7 -1 8 0 2 3 -5 2 -7 9 -4 14 3 6 11
5 20 -2 11 -9 14 -9 14 0 0 7 5 9 10 6 6 -3 10 -1 10 5 0 6 4 9 8 6 4 -2 14
-1 21 3 8 5 0 8 -22 7 -19 0 -33 -4 -30 -8 7 -12 -12 -9 -24 3 -6 6 -13 7 -15
2z"/>
<path d="M1709 86 c-8 -8 -3 -33 7 -33 7 0 12 5 11 10 -1 5 4 12 11 14 8 3 10
-2 6 -14 -4 -14 -4 -15 4 -4 6 9 15 10 23 5 18 -11 80 -13 73 -3 -2 5 -11 6
-20 2 -9 -3 -14 0 -12 7 2 7 -3 15 -11 18 -10 3 -12 0 -8 -12 5 -12 3 -16 -5
-13 -7 2 -12 8 -11 13 1 7 -62 15 -68 10z"/>
<path d="M1840 81 c8 -5 18 -7 24 -4 5 4 7 -1 2 -12 -5 -15 -4 -16 9 -5 12 10
15 9 15 -6 0 -11 3 -15 8 -9 8 12 61 13 80 2 7 -5 12 -5 11 0 -1 4 -1 14 0 22
1 11 4 11 17 0 9 -7 22 -14 29 -15 17 -3 28 23 13 32 -6 4 -8 3 -5 -3 4 -6 0
-13 -8 -16 -9 -4 -12 -1 -9 7 4 10 -4 13 -25 12 -17 0 -33 -7 -36 -15 -4 -11
-8 -11 -21 0 -20 16 -46 21 -37 6 4 -7 0 -8 -13 -3 -10 4 -30 10 -44 12 -18 3
-21 2 -10 -5z m94 -9 c3 -5 -1 -9 -9 -9 -8 0 -12 4 -9 9 3 4 7 8 9 8 2 0 6 -4
9 -8z"/>
<path d="M2106 78 c3 -4 0 -9 -5 -9 -6 -1 -15 -2 -21 -3 -5 0 -10 -4 -10 -8 0
-5 0 -11 0 -14 0 -4 6 -1 13 5 8 6 17 8 20 4 4 -3 7 -1 7 5 0 7 5 12 10 12 6
0 10 -8 10 -17 0 -11 3 -14 8 -7 4 5 21 9 39 8 18 0 30 3 27 7 -2 4 -12 5 -21
2 -10 -4 -14 -2 -9 5 3 6 2 13 -3 16 -5 4 -12 2 -16 -4 -3 -5 -11 -10 -16 -10
-6 0 -8 4 -5 8 2 4 -4 8 -14 8 -10 0 -16 -4 -14 -8z"/>
<path d="M2376 78 c3 -4 11 -5 19 -1 21 7 19 12 -4 10 -11 0 -18 -5 -15 -9z"/>
<path d="M2713 68 c7 -11 14 -13 18 -6 4 6 12 8 18 4 6 -4 9 -2 6 6 -3 8 -16
14 -29 14 -20 0 -22 -3 -13 -18z"/>
<path d="M2953 68 c6 -9 14 -14 17 -10 7 10 71 12 65 2 -2 -3 2 -7 9 -7 8 0
12 5 10 12 -3 6 5 11 17 12 17 2 18 -1 9 -13 -9 -10 -9 -14 -1 -14 6 0 11 4
11 9 0 5 20 8 44 7 29 -1 42 2 39 9 -4 13 -151 14 -170 2 -7 -5 -13 -4 -13 0
0 5 -11 9 -24 9 -20 0 -22 -3 -13 -18z"/>
<path d="M3200 75 c-10 -13 -11 -18 -1 -28 10 -9 11 -8 5 6 -6 17 -5 18 15 5
18 -11 23 -11 31 2 10 16 4 30 -12 30 -5 0 -7 -7 -4 -16 4 -10 2 -14 -6 -11
-7 2 -12 10 -10 16 3 15 -3 14 -18 -4z"/>
<path d="M3270 85 c0 -7 30 -13 34 -7 3 4 -4 9 -15 9 -10 1 -19 0 -19 -2z"/>
<path d="M3401 73 c-7 -8 -10 -17 -7 -20 3 -4 6 -3 6 2 0 4 8 1 18 -6 9 -7 14
-10 10 -5 -4 5 -3 16 2 26 11 21 -10 23 -29 3z"/>
<path d="M3508 83 c-8 -16 -3 -36 10 -39 7 -1 8 0 2 3 -5 2 -7 9 -4 14 3 6 11
5 20 -2 11 -9 14 -9 14 0 0 7 5 9 10 6 6 -3 10 -1 10 5 0 6 4 9 8 6 4 -2 14
-1 21 3 8 5 0 8 -22 7 -19 0 -33 -4 -30 -8 7 -12 -12 -9 -24 3 -6 6 -13 7 -15
2z"/>
<path d="M3629 88 c-7 -23 -4 -35 7 -35 9 0 11 4 4 12 -5 7 -7 15 -3 18 3 4 3
7 0 7 -4 0 -7 -1 -8 -2z"/>
<path d="M3654 73 c3 -8 6 -18 6 -21 0 -4 4 -1 9 7 6 9 14 10 22 5 18 -11 80
-13 73 -3 -2 5 -11 6 -20 2 -9 -3 -14 0 -12 7 2 7 -3 15 -11 18 -10 3 -12 0
-8 -12 5 -12 3 -16 -5 -13 -7 2 -12 8 -11 13 1 5 -10 10 -24 10 -18 2 -23 -2
-19 -13z"/>
<path d="M3760 81 c8 -5 18 -7 24 -4 5 4 7 -1 2 -12 -5 -15 -4 -16 9 -5 12 10
15 9 15 -6 0 -11 3 -15 8 -9 8 12 61 13 80 2 7 -5 12 -5 11 0 -5 29 1 36 19
20 21 -19 42 -22 42 -7 0 6 0 13 0 17 0 15 -79 10 -85 -5 -4 -12 -8 -12 -21
-1 -20 16 -46 21 -37 6 4 -7 0 -8 -13 -3 -10 4 -30 10 -44 12 -18 3 -21 2 -10
-5z m94 -9 c3 -5 -1 -9 -9 -9 -8 0 -12 4 -9 9 3 4 7 8 9 8 2 0 6 -4 9 -8z
m106 -6 c-7 -7 -14 -6 -21 1 -9 9 -7 12 9 10 14 -1 18 -5 12 -11z"/>
<path d="M4009 71 c9 -9 18 -13 19 -9 7 15 22 8 22 -9 0 -11 3 -14 8 -7 8 11
62 11 82 -1 8 -5 11 -4 6 3 -10 17 11 24 34 10 17 -11 22 -11 30 2 10 16 4 30
-12 30 -5 0 -7 -7 -4 -16 4 -10 2 -14 -6 -11 -7 2 -12 9 -11 14 1 5 -5 10 -13
10 -7 0 -14 -5 -14 -11 0 -6 -5 -4 -11 4 -9 13 -10 13 -6 -1 4 -12 -1 -16 -19
-16 -13 0 -21 3 -19 8 3 4 1 10 -4 13 -5 4 -12 2 -16 -4 -3 -5 -11 -10 -16
-10 -6 0 -8 3 -6 8 3 4 -10 8 -28 8 -30 1 -31 0 -16 -15z"/>
<path d="M4230 85 c0 -7 30 -13 34 -7 3 4 -4 9 -15 9 -10 1 -19 0 -19 -2z"/>
<path d="M4361 73 c-7 -8 -10 -17 -7 -20 3 -4 6 -3 6 2 0 4 8 1 18 -6 9 -7 14
-10 10 -5 -4 5 -3 16 2 26 11 21 -10 23 -29 3z"/>
<path d="M4468 83 c-8 -16 -3 -36 10 -39 7 -1 8 0 2 3 -5 2 -7 9 -4 14 3 6 11
5 20 -2 11 -9 14 -9 14 0 0 7 5 9 10 6 6 -3 10 -1 10 5 0 6 4 9 8 6 4 -2 14
-1 21 3 8 5 0 8 -22 7 -19 0 -33 -4 -30 -8 7 -12 -12 -9 -24 3 -6 6 -13 7 -15
2z"/>
<path d="M4589 88 c-7 -23 -4 -35 7 -35 9 0 11 4 4 12 -5 7 -7 15 -3 18 3 4 3
7 0 7 -4 0 -7 -1 -8 -2z"/>
<path d="M4614 73 c3 -8 6 -18 6 -21 0 -4 4 -1 9 7 6 9 14 10 22 5 18 -11 80
-13 73 -3 -2 5 -11 6 -20 2 -9 -3 -14 0 -12 7 2 7 -3 15 -11 18 -10 3 -12 0
-8 -12 5 -12 3 -16 -5 -13 -7 2 -12 8 -11 13 1 5 -10 10 -24 10 -18 2 -23 -2
-19 -13z"/>
<path d="M4720 81 c8 -5 18 -7 24 -4 5 4 7 -1 2 -12 -5 -15 -4 -16 9 -5 12 10
15 9 15 -6 0 -11 3 -15 8 -9 8 12 61 13 80 2 7 -5 12 -5 11 0 -3 19 2 34 10
28 5 -3 12 -1 15 4 3 4 -4 8 -17 7 -12 0 -26 -7 -30 -14 -7 -11 -12 -11 -24 0
-19 16 -45 20 -36 5 4 -7 0 -8 -13 -3 -10 4 -30 10 -44 12 -18 3 -21 2 -10 -5z
m94 -9 c3 -5 -1 -9 -9 -9 -8 0 -12 4 -9 9 3 4 7 8 9 8 2 0 6 -4 9 -8z"/>
<path d="M4970 75 c14 -7 28 -11 32 -9 5 3 8 -3 9 -13 0 -11 3 -13 6 -5 2 6
10 9 15 6 7 -4 8 -2 4 4 -4 7 -3 12 3 12 5 0 11 -5 13 -12 3 -9 6 -9 12 0 4 7
2 12 -6 12 -10 0 -10 2 1 9 10 7 7 9 -12 8 -14 -1 -23 -5 -21 -9 3 -4 -5 -6
-16 -5 -11 1 -20 4 -20 7 0 3 -10 6 -22 7 -22 2 -22 1 2 -12z"/>
<path d="M386 62 c-3 -5 1 -9 9 -9 8 0 12 4 9 9 -3 4 -7 8 -9 8 -2 0 -6 -4 -9
-8z"/>
<path d="M710 60 c-13 -8 -12 -10 3 -10 9 0 17 5 17 10 0 12 -1 12 -20 0z"/>
<path d="M866 62 c-3 -5 1 -9 9 -9 8 0 12 4 9 9 -3 4 -7 8 -9 8 -2 0 -6 -4 -9
-8z"/>
<path d="M1190 60 c-13 -8 -12 -10 3 -10 9 0 17 5 17 10 0 12 -1 12 -20 0z"/>
<path d="M1346 62 c-3 -5 1 -9 9 -9 8 0 12 4 9 9 -7 10 -11 10 -18 0z"/>
<path d="M1670 60 c-13 -8 -12 -10 3 -10 9 0 17 5 17 10 0 12 -1 12 -20 0z"/>
<path d="M2390 60 c-13 -8 -12 -10 3 -10 9 0 17 5 17 10 0 12 -1 12 -20 0z"/>
<path d="M3266 62 c-3 -5 1 -9 9 -9 8 0 12 4 9 9 -3 4 -7 8 -9 8 -2 0 -6 -4
-9 -8z"/>
<path d="M3590 60 c-13 -8 -12 -10 3 -10 9 0 17 5 17 10 0 12 -1 12 -20 0z"/>
<path d="M3986 62 c-3 -5 1 -9 9 -9 8 0 12 4 9 9 -3 4 -7 8 -9 8 -2 0 -6 -4
-9 -8z"/>
<path d="M4226 62 c-3 -5 1 -9 9 -9 8 0 12 4 9 9 -3 4 -7 8 -9 8 -2 0 -6 -4
-9 -8z"/>
<path d="M4550 60 c-13 -8 -12 -10 3 -10 9 0 17 5 17 10 0 12 -1 12 -20 0z"/>
<path d="M4960 56 c0 -2 7 -7 16 -10 8 -3 12 -2 9 4 -6 10 -25 14 -25 6z"/>
<path d="M2668 43 c7 -3 16 -2 19 1 4 3 -2 6 -13 5 -11 0 -14 -3 -6 -6z"/>
</g>
</svg>
